# xmcd
#
# Track frame offsets:
#	150
#	14742
#	35826
#	55708
#	73639
#	92402
#	111627
#	130969
#	150291
#	169487
#
# Disc length: 2558 seconds
#
# Revision: 0
# Processed by: cddbd v1.5.2PL0 Copyright (c) Steve Scherf et al.
# Submitted via: EasyCDDAExtractor 12.0.0.1
#
DISCID=8909fc0a
DTITLE=周杰伦 - 跨时代
DYEAR=2010
DGENRE=R&B
TTITLE0=跨时代
TTITLE1=说了再见
TTITLE2=烟花易冷
TTITLE3=免费教学录像带
TTITLE4=好久不见
TTITLE5=雨下一整晚
TTITLE6=我落泪-情绪零碎
TTITLE7=爱的飞行日记
TTITLE8=自导自演
TTITLE9=超人不会飞
EXTD=
EXTT0=
EXTT1=
EXTT2=
EXTT3=
EXTT4=
EXTT5=
EXTT6=
EXTT7=
EXTT8=
EXTT9=
PLAYORDER=
